<mxfile host="65bd71144e">
    <diagram id="LiiUiLmAXnGqsflsbKMH" name="Page-1">
        <mxGraphModel dx="607" dy="546" grid="1" gridSize="10" guides="1" tooltips="1" connect="1" arrows="1" fold="1" page="1" pageScale="1" pageWidth="850" pageHeight="1100" math="0" shadow="0">
            <root>
                <mxCell id="0"/>
                <mxCell id="1" parent="0"/>
                <mxCell id="6" value="&lt;&lt; Schachfigur &gt;&gt;&#10;AbstractClass" style="swimlane;fontStyle=1;align=center;verticalAlign=top;childLayout=stackLayout;horizontal=1;startSize=40;horizontalStack=0;resizeParent=1;resizeParentMax=0;resizeLast=0;collapsible=1;marginBottom=0;" parent="1" vertex="1">
                    <mxGeometry x="400" y="510" width="340" height="204" as="geometry"/>
                </mxCell>
                <mxCell id="7" value="- xPos: int" style="text;strokeColor=none;fillColor=none;align=left;verticalAlign=top;spacingLeft=4;spacingRight=4;overflow=hidden;rotatable=0;points=[[0,0.5],[1,0.5]];portConstraint=eastwest;" parent="6" vertex="1">
                    <mxGeometry y="40" width="340" height="26" as="geometry"/>
                </mxCell>
                <mxCell id="11" value="- yPos: int" style="text;strokeColor=none;fillColor=none;align=left;verticalAlign=top;spacingLeft=4;spacingRight=4;overflow=hidden;rotatable=0;points=[[0,0.5],[1,0.5]];portConstraint=eastwest;" parent="6" vertex="1">
                    <mxGeometry y="66" width="340" height="26" as="geometry"/>
                </mxCell>
                <mxCell id="13" value="- istWeiss: boolean" style="text;strokeColor=none;fillColor=none;align=left;verticalAlign=top;spacingLeft=4;spacingRight=4;overflow=hidden;rotatable=0;points=[[0,0.5],[1,0.5]];portConstraint=eastwest;" parent="6" vertex="1">
                    <mxGeometry y="92" width="340" height="26" as="geometry"/>
                </mxCell>
                <mxCell id="8" value="" style="line;strokeWidth=1;fillColor=none;align=left;verticalAlign=middle;spacingTop=-1;spacingLeft=3;spacingRight=3;rotatable=0;labelPosition=right;points=[];portConstraint=eastwest;strokeColor=inherit;" parent="6" vertex="1">
                    <mxGeometry y="118" width="340" height="8" as="geometry"/>
                </mxCell>
                <mxCell id="9" value="+ ziehen(von: String, zu: String): boolean &lt;&lt; abstract &gt;&gt;" style="text;strokeColor=none;fillColor=none;align=left;verticalAlign=top;spacingLeft=4;spacingRight=4;overflow=hidden;rotatable=0;points=[[0,0.5],[1,0.5]];portConstraint=eastwest;" parent="6" vertex="1">
                    <mxGeometry y="126" width="340" height="26" as="geometry"/>
                </mxCell>
                <mxCell id="178" value="+ schlagen(von: String, zu: String): boolean &lt;&lt; abstract &gt;&gt;" style="text;strokeColor=none;fillColor=none;align=left;verticalAlign=top;spacingLeft=4;spacingRight=4;overflow=hidden;rotatable=0;points=[[0,0.5],[1,0.5]];portConstraint=eastwest;" parent="6" vertex="1">
                    <mxGeometry y="152" width="340" height="26" as="geometry"/>
                </mxCell>
                <mxCell id="174" value="+ istFigurWeiss(): boolean (getter)" style="text;strokeColor=none;fillColor=none;align=left;verticalAlign=top;spacingLeft=4;spacingRight=4;overflow=hidden;rotatable=0;points=[[0,0.5],[1,0.5]];portConstraint=eastwest;" parent="6" vertex="1">
                    <mxGeometry y="178" width="340" height="26" as="geometry"/>
                </mxCell>
                <mxCell id="12" value="&lt;p style=&quot;margin: 4px 0px 0px; text-decoration: underline;&quot;&gt;&lt;b&gt;enum&lt;br&gt;xUebersetzung&lt;/b&gt;&lt;/p&gt;&lt;hr&gt;&lt;p style=&quot;margin:0px;margin-left:8px;&quot;&gt;a = 1&lt;br&gt;b = 2&lt;br&gt;c = 3&lt;/p&gt;&lt;p style=&quot;margin:0px;margin-left:8px;&quot;&gt;d = 4&lt;/p&gt;&lt;p style=&quot;margin:0px;margin-left:8px;&quot;&gt;e = 5&lt;/p&gt;&lt;p style=&quot;margin:0px;margin-left:8px;&quot;&gt;f = 6&lt;/p&gt;&lt;p style=&quot;margin:0px;margin-left:8px;&quot;&gt;g = 7&lt;/p&gt;&lt;p style=&quot;margin:0px;margin-left:8px;&quot;&gt;h = 8&lt;/p&gt;" style="verticalAlign=top;align=center;overflow=fill;fontSize=12;fontFamily=Helvetica;html=1;" parent="1" vertex="1">
                    <mxGeometry x="460" y="190" width="120" height="170" as="geometry"/>
                </mxCell>
                <mxCell id="14" value="1" style="endArrow=open;html=1;endSize=12;startArrow=diamondThin;startSize=14;startFill=0;edgeStyle=orthogonalEdgeStyle;align=left;verticalAlign=bottom;entryX=-0.001;entryY=0.16;entryDx=0;entryDy=0;entryPerimeter=0;exitX=1.007;exitY=0.442;exitDx=0;exitDy=0;exitPerimeter=0;" parent="1" source="71" target="12" edge="1">
                    <mxGeometry x="-1" y="3" relative="1" as="geometry">
                        <mxPoint x="380" y="340" as="sourcePoint"/>
                        <mxPoint x="500" y="240" as="targetPoint"/>
                        <Array as="points">
                            <mxPoint x="420" y="340"/>
                            <mxPoint x="420" y="217"/>
                        </Array>
                        <mxPoint as="offset"/>
                    </mxGeometry>
                </mxCell>
                <mxCell id="21" value="Bauer" style="swimlane;fontStyle=0;childLayout=stackLayout;horizontal=1;startSize=26;fillColor=none;horizontalStack=0;resizeParent=1;resizeParentMax=0;resizeLast=0;collapsible=1;marginBottom=0;flipH=1;" parent="1" vertex="1">
                    <mxGeometry x="60" y="820" width="140" height="170" as="geometry"/>
                </mxCell>
                <mxCell id="23" value="+ ziehen(von: String,&#10;   zu: String): boolean" style="text;strokeColor=none;fillColor=none;align=left;verticalAlign=top;spacingLeft=4;spacingRight=4;overflow=hidden;rotatable=0;points=[[0,0.5],[1,0.5]];portConstraint=eastwest;" parent="21" vertex="1">
                    <mxGeometry y="26" width="140" height="44" as="geometry"/>
                </mxCell>
                <mxCell id="185" value="+ schlagen(von: String,&#10;   zu: String): boolean" style="text;strokeColor=none;fillColor=none;align=left;verticalAlign=top;spacingLeft=4;spacingRight=4;overflow=hidden;rotatable=0;points=[[0,0.5],[1,0.5]];portConstraint=eastwest;" parent="21" vertex="1">
                    <mxGeometry y="70" width="140" height="44" as="geometry"/>
                </mxCell>
                <mxCell id="191" value="+ enPassantSchlagen&#10;   (von: String, zu:&#10;   String): boolean" style="text;strokeColor=none;fillColor=none;align=left;verticalAlign=top;spacingLeft=4;spacingRight=4;overflow=hidden;rotatable=0;points=[[0,0.5],[1,0.5]];portConstraint=eastwest;" parent="21" vertex="1">
                    <mxGeometry y="114" width="140" height="56" as="geometry"/>
                </mxCell>
                <mxCell id="25" value="Springer" style="swimlane;fontStyle=0;childLayout=stackLayout;horizontal=1;startSize=26;fillColor=none;horizontalStack=0;resizeParent=1;resizeParentMax=0;resizeLast=0;collapsible=1;marginBottom=0;flipH=1;" parent="1" vertex="1">
                    <mxGeometry x="234" y="820" width="140" height="114" as="geometry"/>
                </mxCell>
                <mxCell id="26" value="+ ziehen(von: String,&#10;   zu: String): boolean" style="text;strokeColor=none;fillColor=none;align=left;verticalAlign=top;spacingLeft=4;spacingRight=4;overflow=hidden;rotatable=0;points=[[0,0.5],[1,0.5]];portConstraint=eastwest;" parent="25" vertex="1">
                    <mxGeometry y="26" width="140" height="44" as="geometry"/>
                </mxCell>
                <mxCell id="184" value="+ schlagen(von: String,&#10;   zu: String): boolean" style="text;strokeColor=none;fillColor=none;align=left;verticalAlign=top;spacingLeft=4;spacingRight=4;overflow=hidden;rotatable=0;points=[[0,0.5],[1,0.5]];portConstraint=eastwest;" parent="25" vertex="1">
                    <mxGeometry y="70" width="140" height="44" as="geometry"/>
                </mxCell>
                <mxCell id="29" value="Laeufer" style="swimlane;fontStyle=0;childLayout=stackLayout;horizontal=1;startSize=26;fillColor=none;horizontalStack=0;resizeParent=1;resizeParentMax=0;resizeLast=0;collapsible=1;marginBottom=0;flipH=1;" parent="1" vertex="1">
                    <mxGeometry x="408" y="820" width="140" height="114" as="geometry"/>
                </mxCell>
                <mxCell id="30" value="+ ziehen(von: String,&#10;   zu: String): boolean" style="text;strokeColor=none;fillColor=none;align=left;verticalAlign=top;spacingLeft=4;spacingRight=4;overflow=hidden;rotatable=0;points=[[0,0.5],[1,0.5]];portConstraint=eastwest;" parent="29" vertex="1">
                    <mxGeometry y="26" width="140" height="44" as="geometry"/>
                </mxCell>
                <mxCell id="183" value="+ schlagen(von: String,&#10;   zu: String): boolean" style="text;strokeColor=none;fillColor=none;align=left;verticalAlign=top;spacingLeft=4;spacingRight=4;overflow=hidden;rotatable=0;points=[[0,0.5],[1,0.5]];portConstraint=eastwest;" parent="29" vertex="1">
                    <mxGeometry y="70" width="140" height="44" as="geometry"/>
                </mxCell>
                <mxCell id="33" value="Turm" style="swimlane;fontStyle=0;childLayout=stackLayout;horizontal=1;startSize=26;fillColor=none;horizontalStack=0;resizeParent=1;resizeParentMax=0;resizeLast=0;collapsible=1;marginBottom=0;flipH=1;" parent="1" vertex="1">
                    <mxGeometry x="582" y="820" width="140" height="158" as="geometry"/>
                </mxCell>
                <mxCell id="34" value="+ ziehen(von: String,&#10;   zu: String): boolean" style="text;strokeColor=none;fillColor=none;align=left;verticalAlign=top;spacingLeft=4;spacingRight=4;overflow=hidden;rotatable=0;points=[[0,0.5],[1,0.5]];portConstraint=eastwest;" parent="33" vertex="1">
                    <mxGeometry y="26" width="140" height="44" as="geometry"/>
                </mxCell>
                <mxCell id="179" value="+ schlagen(von: String,&#10;   zu: String): boolean" style="text;strokeColor=none;fillColor=none;align=left;verticalAlign=top;spacingLeft=4;spacingRight=4;overflow=hidden;rotatable=0;points=[[0,0.5],[1,0.5]];portConstraint=eastwest;" parent="33" vertex="1">
                    <mxGeometry y="70" width="140" height="44" as="geometry"/>
                </mxCell>
                <mxCell id="177" value="+ rochade(von: String,&#10;   zu: String): boolean" style="text;strokeColor=none;fillColor=none;align=left;verticalAlign=top;spacingLeft=4;spacingRight=4;overflow=hidden;rotatable=0;points=[[0,0.5],[1,0.5]];portConstraint=eastwest;" parent="33" vertex="1">
                    <mxGeometry y="114" width="140" height="44" as="geometry"/>
                </mxCell>
                <mxCell id="37" value="Dame" style="swimlane;fontStyle=0;childLayout=stackLayout;horizontal=1;startSize=26;fillColor=none;horizontalStack=0;resizeParent=1;resizeParentMax=0;resizeLast=0;collapsible=1;marginBottom=0;flipH=1;" parent="1" vertex="1">
                    <mxGeometry x="756" y="820" width="140" height="114" as="geometry"/>
                </mxCell>
                <mxCell id="38" value="+ ziehen(von: String,&#10;   zu: String): boolean" style="text;strokeColor=none;fillColor=none;align=left;verticalAlign=top;spacingLeft=4;spacingRight=4;overflow=hidden;rotatable=0;points=[[0,0.5],[1,0.5]];portConstraint=eastwest;" parent="37" vertex="1">
                    <mxGeometry y="26" width="140" height="44" as="geometry"/>
                </mxCell>
                <mxCell id="182" value="+ schlagen(von: String,&#10;   zu: String): boolean" style="text;strokeColor=none;fillColor=none;align=left;verticalAlign=top;spacingLeft=4;spacingRight=4;overflow=hidden;rotatable=0;points=[[0,0.5],[1,0.5]];portConstraint=eastwest;" parent="37" vertex="1">
                    <mxGeometry y="70" width="140" height="44" as="geometry"/>
                </mxCell>
                <mxCell id="41" value="Koenig" style="swimlane;fontStyle=0;childLayout=stackLayout;horizontal=1;startSize=26;fillColor=none;horizontalStack=0;resizeParent=1;resizeParentMax=0;resizeLast=0;collapsible=1;marginBottom=0;flipH=1;" parent="1" vertex="1">
                    <mxGeometry x="930" y="820" width="140" height="158" as="geometry"/>
                </mxCell>
                <mxCell id="42" value="+ ziehen(von: String,&#10;   zu: String): boolean" style="text;strokeColor=none;fillColor=none;align=left;verticalAlign=top;spacingLeft=4;spacingRight=4;overflow=hidden;rotatable=0;points=[[0,0.5],[1,0.5]];portConstraint=eastwest;" parent="41" vertex="1">
                    <mxGeometry y="26" width="140" height="44" as="geometry"/>
                </mxCell>
                <mxCell id="180" value="+ schlagen(von: String,&#10;   zu: String): boolean" style="text;strokeColor=none;fillColor=none;align=left;verticalAlign=top;spacingLeft=4;spacingRight=4;overflow=hidden;rotatable=0;points=[[0,0.5],[1,0.5]];portConstraint=eastwest;" parent="41" vertex="1">
                    <mxGeometry y="70" width="140" height="44" as="geometry"/>
                </mxCell>
                <mxCell id="181" value="+ rochade(von: String,&#10;   zu: String): boolean" style="text;strokeColor=none;fillColor=none;align=left;verticalAlign=top;spacingLeft=4;spacingRight=4;overflow=hidden;rotatable=0;points=[[0,0.5],[1,0.5]];portConstraint=eastwest;" parent="41" vertex="1">
                    <mxGeometry y="114" width="140" height="44" as="geometry"/>
                </mxCell>
                <mxCell id="45" value="" style="endArrow=none;html=1;edgeStyle=orthogonalEdgeStyle;entryX=0.5;entryY=0;entryDx=0;entryDy=0;exitX=0;exitY=0.5;exitDx=0;exitDy=0;startArrow=block;startFill=1;" parent="1" source="174" target="21" edge="1">
                    <mxGeometry relative="1" as="geometry">
                        <mxPoint x="430" y="760" as="sourcePoint"/>
                        <mxPoint x="270" y="960" as="targetPoint"/>
                    </mxGeometry>
                </mxCell>
                <mxCell id="48" value="" style="endArrow=none;html=1;edgeStyle=orthogonalEdgeStyle;entryX=0.5;entryY=0;entryDx=0;entryDy=0;exitX=0.087;exitY=1.03;exitDx=0;exitDy=0;exitPerimeter=0;startArrow=block;startFill=1;" parent="1" source="174" target="25" edge="1">
                    <mxGeometry relative="1" as="geometry">
                        <mxPoint x="430" y="740" as="sourcePoint"/>
                        <mxPoint x="280" y="790" as="targetPoint"/>
                        <Array as="points">
                            <mxPoint x="430" y="770"/>
                            <mxPoint x="304" y="770"/>
                        </Array>
                    </mxGeometry>
                </mxCell>
                <mxCell id="51" value="" style="endArrow=none;html=1;edgeStyle=orthogonalEdgeStyle;entryX=0.5;entryY=0;entryDx=0;entryDy=0;exitX=0.353;exitY=1;exitDx=0;exitDy=0;exitPerimeter=0;startArrow=block;startFill=1;" parent="1" source="174" target="29" edge="1">
                    <mxGeometry relative="1" as="geometry">
                        <mxPoint x="477.80999999999995" y="739.43" as="sourcePoint"/>
                        <mxPoint x="340" y="790" as="targetPoint"/>
                        <Array as="points">
                            <mxPoint x="520" y="770"/>
                            <mxPoint x="478" y="770"/>
                        </Array>
                    </mxGeometry>
                </mxCell>
                <mxCell id="54" value="" style="endArrow=none;html=1;edgeStyle=orthogonalEdgeStyle;entryX=0.5;entryY=0;entryDx=0;entryDy=0;startArrow=block;startFill=1;" parent="1" source="174" target="33" edge="1">
                    <mxGeometry relative="1" as="geometry">
                        <mxPoint x="620" y="740" as="sourcePoint"/>
                        <mxPoint x="610" y="788.5699999999999" as="targetPoint"/>
                        <Array as="points">
                            <mxPoint x="620" y="770"/>
                            <mxPoint x="650" y="770"/>
                            <mxPoint x="650" y="820"/>
                        </Array>
                    </mxGeometry>
                </mxCell>
                <mxCell id="60" value="" style="endArrow=none;html=1;edgeStyle=orthogonalEdgeStyle;entryX=0.5;entryY=0;entryDx=0;entryDy=0;startArrow=block;startFill=1;" parent="1" target="41" edge="1">
                    <mxGeometry relative="1" as="geometry">
                        <mxPoint x="750" y="700" as="sourcePoint"/>
                        <mxPoint x="930" y="790" as="targetPoint"/>
                        <Array as="points">
                            <mxPoint x="1000" y="700"/>
                        </Array>
                    </mxGeometry>
                </mxCell>
                <mxCell id="66" value="Uebersetzung&#10;der X Koordinaten" style="text;align=left;fontStyle=0;verticalAlign=middle;spacingLeft=3;spacingRight=3;strokeColor=none;rotatable=0;points=[[0,0.5],[1,0.5]];portConstraint=eastwest;" parent="1" vertex="1">
                    <mxGeometry x="590" y="190" width="125" height="30" as="geometry"/>
                </mxCell>
                <mxCell id="68" value="Schachbrett" style="swimlane;fontStyle=1;align=center;verticalAlign=top;childLayout=stackLayout;horizontal=1;startSize=26;horizontalStack=0;resizeParent=1;resizeParentMax=0;resizeLast=0;collapsible=1;marginBottom=0;" parent="1" vertex="1">
                    <mxGeometry x="60" y="190" width="310" height="164" as="geometry"/>
                </mxCell>
                <mxCell id="72" value="- XBREITE: int final const 8" style="text;strokeColor=none;fillColor=none;align=left;verticalAlign=top;spacingLeft=4;spacingRight=4;overflow=hidden;rotatable=0;points=[[0,0.5],[1,0.5]];portConstraint=eastwest;" parent="68" vertex="1">
                    <mxGeometry y="26" width="310" height="26" as="geometry"/>
                </mxCell>
                <mxCell id="69" value="- YHOEHE: int final const 8" style="text;strokeColor=none;fillColor=none;align=left;verticalAlign=top;spacingLeft=4;spacingRight=4;overflow=hidden;rotatable=0;points=[[0,0.5],[1,0.5]];portConstraint=eastwest;" parent="68" vertex="1">
                    <mxGeometry y="52" width="310" height="26" as="geometry"/>
                </mxCell>
                <mxCell id="74" value="- SCHWARZ_UR: boolean final const true" style="text;strokeColor=none;fillColor=none;align=left;verticalAlign=top;spacingLeft=4;spacingRight=4;overflow=hidden;rotatable=0;points=[[0,0.5],[1,0.5]];portConstraint=eastwest;" parent="68" vertex="1">
                    <mxGeometry y="78" width="310" height="26" as="geometry"/>
                </mxCell>
                <mxCell id="73" value="+ FIGUREN_POS: Schachfigur[ ] schachfiguren (Array)" style="text;strokeColor=none;fillColor=none;align=left;verticalAlign=top;spacingLeft=4;spacingRight=4;overflow=hidden;rotatable=0;points=[[0,0.5],[1,0.5]];portConstraint=eastwest;" parent="68" vertex="1">
                    <mxGeometry y="104" width="310" height="26" as="geometry"/>
                </mxCell>
                <mxCell id="70" value="" style="line;strokeWidth=1;fillColor=none;align=left;verticalAlign=middle;spacingTop=-1;spacingLeft=3;spacingRight=3;rotatable=0;labelPosition=right;points=[];portConstraint=eastwest;strokeColor=inherit;" parent="68" vertex="1">
                    <mxGeometry y="130" width="310" height="8" as="geometry"/>
                </mxCell>
                <mxCell id="71" value="+ xUebersetzen(Char xPosChar): int" style="text;strokeColor=none;fillColor=none;align=left;verticalAlign=top;spacingLeft=4;spacingRight=4;overflow=hidden;rotatable=0;points=[[0,0.5],[1,0.5]];portConstraint=eastwest;" parent="68" vertex="1">
                    <mxGeometry y="138" width="310" height="26" as="geometry"/>
                </mxCell>
                <mxCell id="76" value="" style="endArrow=none;html=1;edgeStyle=orthogonalEdgeStyle;entryX=0.48;entryY=-0.011;entryDx=0;entryDy=0;entryPerimeter=0;startArrow=block;startFill=1;" parent="1" source="174" target="37" edge="1">
                    <mxGeometry relative="1" as="geometry">
                        <mxPoint x="709" y="720" as="sourcePoint"/>
                        <mxPoint x="724.98" y="819.4100000000001" as="targetPoint"/>
                        <Array as="points">
                            <mxPoint x="709" y="769"/>
                            <mxPoint x="829" y="769"/>
                        </Array>
                    </mxGeometry>
                </mxCell>
                <mxCell id="84" value="Bewegungs-&#10;moeglichkeiten:&#10;&#10;Erster Zug:&#10;y + 2 (Doppelzug)&#10;&#10;Alle anderen Zuege:&#10;y + 1&#10;&#10;Schlagen:&#10;x + 1, y + 1&#10;x - 1, y + 1&#10;(auf Position des&#10;Gegners)&#10;&#10;En Passant:&#10;x + 1, y + 1&#10;x - 1, y + 1&#10;(an Position des&#10;Gegners vorbei, nur&#10;wenn Gegner Bauer,&#10;und nur wenn Gegner&#10;Doppelzug gemacht&#10;hat.)" style="text;align=left;fontStyle=0;verticalAlign=top;spacingLeft=3;spacingRight=3;strokeColor=none;rotatable=0;points=[[0,0.5],[1,0.5]];portConstraint=eastwest;" parent="1" vertex="1">
                    <mxGeometry x="67.5" y="1000" width="132.5" height="350" as="geometry"/>
                </mxCell>
                <mxCell id="85" value="Methode ziehen() nimmt die Eingabe&#10;eines Spielzugs z.B. Springer  g1-f3,&#10;uebersetzt die alphanummerischen&#10;Koordinaten und berechnet, ob der Zug&#10;durchgefuehrt werden kann." style="text;align=center;fontStyle=0;verticalAlign=middle;spacingLeft=3;spacingRight=3;strokeColor=default;rotatable=0;points=[[0,0.5],[1,0.5]];portConstraint=eastwest;" parent="1" vertex="1">
                    <mxGeometry x="67.5" y="1470" width="240" height="120" as="geometry"/>
                </mxCell>
                <mxCell id="86" value="Bewegungs- und&#10;Schlagemoeglich-&#10;keiten:&#10;&#10;x - 1, y + 2&#10;&#10;x + 1, y + 2&#10;&#10;x - 1, y - 2&#10;&#10;x + 1, y - 2&#10;&#10;Kann Figuren&#10;ueberspringen." style="text;align=left;fontStyle=0;verticalAlign=top;spacingLeft=3;spacingRight=3;strokeColor=none;rotatable=0;points=[[0,0.5],[1,0.5]];portConstraint=eastwest;" parent="1" vertex="1">
                    <mxGeometry x="241.5" y="940" width="125" height="210" as="geometry"/>
                </mxCell>
                <mxCell id="87" value="Bewegungs- und&#10;Schlagemoeglich-&#10;keiten:&#10;&#10;x + n, y + n&#10;&#10;x - n, y - n&#10;&#10;x - n, y + n&#10;&#10;x + n, y - n&#10;&#10;Bleibt stets auf der&#10;selben Feldfarbe." style="text;align=left;fontStyle=0;verticalAlign=top;spacingLeft=3;spacingRight=3;strokeColor=none;rotatable=0;points=[[0,0.5],[1,0.5]];portConstraint=eastwest;" parent="1" vertex="1">
                    <mxGeometry x="415" y="940" width="125" height="210" as="geometry"/>
                </mxCell>
                <mxCell id="88" value="Bewegungs- und&#10;Schlagemoeglich-&#10;keiten:&#10;&#10;x + n&#10;&#10;y + n&#10;&#10;x - n&#10;&#10;y - n&#10;&#10;Kann Rochade mit&#10;Koenig vollziehen:&#10;&#10;x + 2&#10;(Linker Turm auf&#10;schwarzem Feld)&#10;&#10;x - 2&#10;(Rechter Turm auf&#10;weissem Feld)" style="text;align=left;fontStyle=0;verticalAlign=top;spacingLeft=3;spacingRight=3;strokeColor=none;rotatable=0;points=[[0,0.5],[1,0.5]];portConstraint=eastwest;" parent="1" vertex="1">
                    <mxGeometry x="597" y="990" width="125" height="330" as="geometry"/>
                </mxCell>
                <mxCell id="89" value="Bewegungs- und&#10;Schlagemoeglich-&#10;keiten:&#10;&#10;x + n&#10;&#10;y + n&#10;&#10;x - n&#10;&#10;y - n&#10;&#10;x + n, y + n&#10;&#10;x - n, y - n&#10;&#10;x - n, y + n&#10;&#10;x + n, y - n" style="text;align=left;fontStyle=0;verticalAlign=top;spacingLeft=3;spacingRight=3;strokeColor=none;rotatable=0;points=[[0,0.5],[1,0.5]];portConstraint=eastwest;" parent="1" vertex="1">
                    <mxGeometry x="763.5" y="940" width="125" height="280" as="geometry"/>
                </mxCell>
                <mxCell id="90" value="Bewegungs- und&#10;Schlagemoeglich-&#10;keiten:&#10;&#10;x + 1&#10;&#10;y + 1&#10;&#10;x - 1&#10;&#10;y - 1&#10;&#10;x + 1, y + 1&#10;&#10;x - 1, y - 1&#10;&#10;x - 1, y + 1&#10;&#10;x + 1, y - 1&#10;&#10;Kann Rochade mit&#10;Turm vollziehen:&#10;&#10;x - 2&#10;(Bei Rochade mit&#10;linkem Turm auf&#10;schwarzem Feld)&#10;&#10;x + 2&#10;(Bei Rochade mit&#10;rechtem Turm auf&#10;weissem Feld)" style="text;align=left;fontStyle=0;verticalAlign=top;spacingLeft=3;spacingRight=3;strokeColor=none;rotatable=0;points=[[0,0.5],[1,0.5]];portConstraint=eastwest;" parent="1" vertex="1">
                    <mxGeometry x="937.5" y="990" width="125" height="470" as="geometry"/>
                </mxCell>
                <mxCell id="92" value="" style="whiteSpace=wrap;html=1;aspect=fixed;strokeColor=default;fillStyle=cross-hatch;fillColor=none;direction=south;" parent="1" vertex="1">
                    <mxGeometry x="925" y="190" width="40" height="40" as="geometry"/>
                </mxCell>
                <mxCell id="93" value="" style="whiteSpace=wrap;html=1;aspect=fixed;strokeColor=default;fillColor=#666666;direction=south;" parent="1" vertex="1">
                    <mxGeometry x="965" y="190" width="40" height="40" as="geometry"/>
                </mxCell>
                <mxCell id="94" value="" style="whiteSpace=wrap;html=1;aspect=fixed;strokeColor=default;fillStyle=cross-hatch;fillColor=none;direction=south;" parent="1" vertex="1">
                    <mxGeometry x="1005" y="190" width="40" height="40" as="geometry"/>
                </mxCell>
                <mxCell id="95" value="" style="whiteSpace=wrap;html=1;aspect=fixed;strokeColor=default;fillColor=#666666;direction=south;" parent="1" vertex="1">
                    <mxGeometry x="1045" y="190" width="40" height="40" as="geometry"/>
                </mxCell>
                <mxCell id="96" value="" style="whiteSpace=wrap;html=1;aspect=fixed;strokeColor=default;fillColor=none;direction=south;" parent="1" vertex="1">
                    <mxGeometry x="1085" y="190" width="40" height="40" as="geometry"/>
                </mxCell>
                <mxCell id="97" value="" style="whiteSpace=wrap;html=1;aspect=fixed;strokeColor=default;fillColor=#666666;direction=south;" parent="1" vertex="1">
                    <mxGeometry x="1125" y="190" width="40" height="40" as="geometry"/>
                </mxCell>
                <mxCell id="98" value="" style="whiteSpace=wrap;html=1;aspect=fixed;strokeColor=default;fillColor=none;direction=south;" parent="1" vertex="1">
                    <mxGeometry x="1165" y="190" width="40" height="40" as="geometry"/>
                </mxCell>
                <mxCell id="99" value="" style="whiteSpace=wrap;html=1;aspect=fixed;strokeColor=default;fillColor=#666666;direction=south;" parent="1" vertex="1">
                    <mxGeometry x="1205" y="190" width="40" height="40" as="geometry"/>
                </mxCell>
                <mxCell id="100" value="" style="whiteSpace=wrap;html=1;aspect=fixed;strokeColor=default;fillColor=#666666;direction=south;" parent="1" vertex="1">
                    <mxGeometry x="925" y="230" width="40" height="40" as="geometry"/>
                </mxCell>
                <mxCell id="101" value="" style="whiteSpace=wrap;html=1;aspect=fixed;strokeColor=default;fillStyle=cross-hatch;fillColor=none;direction=south;" parent="1" vertex="1">
                    <mxGeometry x="965" y="230" width="40" height="40" as="geometry"/>
                </mxCell>
                <mxCell id="102" value="" style="whiteSpace=wrap;html=1;aspect=fixed;strokeColor=default;fillColor=#666666;direction=south;" parent="1" vertex="1">
                    <mxGeometry x="1005" y="230" width="40" height="40" as="geometry"/>
                </mxCell>
                <mxCell id="103" value="" style="whiteSpace=wrap;html=1;aspect=fixed;strokeColor=default;fillStyle=cross-hatch;fillColor=none;direction=south;" parent="1" vertex="1">
                    <mxGeometry x="1045" y="230" width="40" height="40" as="geometry"/>
                </mxCell>
                <mxCell id="104" value="" style="whiteSpace=wrap;html=1;aspect=fixed;strokeColor=default;fillColor=#666666;direction=south;" parent="1" vertex="1">
                    <mxGeometry x="1085" y="230" width="40" height="40" as="geometry"/>
                </mxCell>
                <mxCell id="105" value="" style="whiteSpace=wrap;html=1;aspect=fixed;strokeColor=default;fillColor=none;direction=south;" parent="1" vertex="1">
                    <mxGeometry x="1125" y="230" width="40" height="40" as="geometry"/>
                </mxCell>
                <mxCell id="106" value="" style="whiteSpace=wrap;html=1;aspect=fixed;strokeColor=default;fillColor=#666666;direction=south;" parent="1" vertex="1">
                    <mxGeometry x="1165" y="230" width="40" height="40" as="geometry"/>
                </mxCell>
                <mxCell id="107" value="" style="whiteSpace=wrap;html=1;aspect=fixed;strokeColor=default;fillColor=none;direction=south;" parent="1" vertex="1">
                    <mxGeometry x="1205" y="230" width="40" height="40" as="geometry"/>
                </mxCell>
                <mxCell id="108" value="" style="whiteSpace=wrap;html=1;aspect=fixed;strokeColor=default;fillStyle=cross-hatch;fillColor=none;direction=south;" parent="1" vertex="1">
                    <mxGeometry x="925" y="270" width="40" height="40" as="geometry"/>
                </mxCell>
                <mxCell id="109" value="" style="whiteSpace=wrap;html=1;aspect=fixed;strokeColor=default;fillColor=#666666;direction=south;" parent="1" vertex="1">
                    <mxGeometry x="965" y="270" width="40" height="40" as="geometry"/>
                </mxCell>
                <mxCell id="110" value="" style="whiteSpace=wrap;html=1;aspect=fixed;strokeColor=default;fillStyle=cross-hatch;fillColor=none;direction=south;" parent="1" vertex="1">
                    <mxGeometry x="1005" y="270" width="40" height="40" as="geometry"/>
                </mxCell>
                <mxCell id="111" value="" style="whiteSpace=wrap;html=1;aspect=fixed;strokeColor=default;fillColor=#666666;direction=south;" parent="1" vertex="1">
                    <mxGeometry x="1045" y="270" width="40" height="40" as="geometry"/>
                </mxCell>
                <mxCell id="112" value="" style="whiteSpace=wrap;html=1;aspect=fixed;strokeColor=default;fillColor=none;direction=south;" parent="1" vertex="1">
                    <mxGeometry x="1085" y="270" width="40" height="40" as="geometry"/>
                </mxCell>
                <mxCell id="113" value="" style="whiteSpace=wrap;html=1;aspect=fixed;strokeColor=default;fillColor=#666666;direction=south;" parent="1" vertex="1">
                    <mxGeometry x="1125" y="270" width="40" height="40" as="geometry"/>
                </mxCell>
                <mxCell id="114" value="" style="whiteSpace=wrap;html=1;aspect=fixed;strokeColor=default;fillColor=none;direction=south;" parent="1" vertex="1">
                    <mxGeometry x="1165" y="270" width="40" height="40" as="geometry"/>
                </mxCell>
                <mxCell id="115" value="" style="whiteSpace=wrap;html=1;aspect=fixed;strokeColor=default;fillColor=#666666;direction=south;" parent="1" vertex="1">
                    <mxGeometry x="1205" y="270" width="40" height="40" as="geometry"/>
                </mxCell>
                <mxCell id="116" value="" style="whiteSpace=wrap;html=1;aspect=fixed;strokeColor=default;fillColor=#666666;direction=south;" parent="1" vertex="1">
                    <mxGeometry x="925" y="310" width="40" height="40" as="geometry"/>
                </mxCell>
                <mxCell id="117" value="" style="whiteSpace=wrap;html=1;aspect=fixed;strokeColor=default;fillStyle=cross-hatch;fillColor=none;direction=south;" parent="1" vertex="1">
                    <mxGeometry x="965" y="310" width="40" height="40" as="geometry"/>
                </mxCell>
                <mxCell id="118" value="" style="whiteSpace=wrap;html=1;aspect=fixed;strokeColor=default;fillColor=#666666;direction=south;" parent="1" vertex="1">
                    <mxGeometry x="1005" y="310" width="40" height="40" as="geometry"/>
                </mxCell>
                <mxCell id="119" value="" style="whiteSpace=wrap;html=1;aspect=fixed;strokeColor=default;fillColor=none;direction=south;" parent="1" vertex="1">
                    <mxGeometry x="1045" y="310" width="40" height="40" as="geometry"/>
                </mxCell>
                <mxCell id="120" value="" style="whiteSpace=wrap;html=1;aspect=fixed;strokeColor=default;fillColor=#666666;direction=south;" parent="1" vertex="1">
                    <mxGeometry x="1085" y="310" width="40" height="40" as="geometry"/>
                </mxCell>
                <mxCell id="121" value="" style="whiteSpace=wrap;html=1;aspect=fixed;strokeColor=default;fillColor=none;direction=south;" parent="1" vertex="1">
                    <mxGeometry x="1125" y="310" width="40" height="40" as="geometry"/>
                </mxCell>
                <mxCell id="122" value="" style="whiteSpace=wrap;html=1;aspect=fixed;strokeColor=default;fillColor=#666666;direction=south;" parent="1" vertex="1">
                    <mxGeometry x="1165" y="310" width="40" height="40" as="geometry"/>
                </mxCell>
                <mxCell id="123" value="" style="whiteSpace=wrap;html=1;aspect=fixed;strokeColor=default;fillColor=none;direction=south;" parent="1" vertex="1">
                    <mxGeometry x="1205" y="310" width="40" height="40" as="geometry"/>
                </mxCell>
                <mxCell id="124" value="" style="whiteSpace=wrap;html=1;aspect=fixed;strokeColor=default;fillStyle=cross-hatch;fillColor=none;direction=south;" parent="1" vertex="1">
                    <mxGeometry x="925" y="350" width="40" height="40" as="geometry"/>
                </mxCell>
                <mxCell id="125" value="" style="whiteSpace=wrap;html=1;aspect=fixed;strokeColor=default;fillColor=#666666;direction=south;" parent="1" vertex="1">
                    <mxGeometry x="965" y="350" width="40" height="40" as="geometry"/>
                </mxCell>
                <mxCell id="126" value="" style="whiteSpace=wrap;html=1;aspect=fixed;strokeColor=default;fillColor=none;direction=south;" parent="1" vertex="1">
                    <mxGeometry x="1005" y="350" width="40" height="40" as="geometry"/>
                </mxCell>
                <mxCell id="127" value="" style="whiteSpace=wrap;html=1;aspect=fixed;strokeColor=default;fillColor=#666666;direction=south;" parent="1" vertex="1">
                    <mxGeometry x="1045" y="350" width="40" height="40" as="geometry"/>
                </mxCell>
                <mxCell id="128" value="" style="whiteSpace=wrap;html=1;aspect=fixed;strokeColor=default;fillColor=none;direction=south;" parent="1" vertex="1">
                    <mxGeometry x="1085" y="350" width="40" height="40" as="geometry"/>
                </mxCell>
                <mxCell id="129" value="" style="whiteSpace=wrap;html=1;aspect=fixed;strokeColor=default;fillColor=#666666;direction=south;" parent="1" vertex="1">
                    <mxGeometry x="1125" y="350" width="40" height="40" as="geometry"/>
                </mxCell>
                <mxCell id="130" value="" style="whiteSpace=wrap;html=1;aspect=fixed;strokeColor=default;fillColor=none;direction=south;" parent="1" vertex="1">
                    <mxGeometry x="1165" y="350" width="40" height="40" as="geometry"/>
                </mxCell>
                <mxCell id="131" value="" style="whiteSpace=wrap;html=1;aspect=fixed;strokeColor=default;fillColor=#666666;direction=south;" parent="1" vertex="1">
                    <mxGeometry x="1205" y="350" width="40" height="40" as="geometry"/>
                </mxCell>
                <mxCell id="132" value="" style="whiteSpace=wrap;html=1;aspect=fixed;strokeColor=default;fillColor=#666666;direction=south;" parent="1" vertex="1">
                    <mxGeometry x="925" y="390" width="40" height="40" as="geometry"/>
                </mxCell>
                <mxCell id="133" value="" style="whiteSpace=wrap;html=1;aspect=fixed;strokeColor=default;fillStyle=cross-hatch;fillColor=none;direction=south;" parent="1" vertex="1">
                    <mxGeometry x="965" y="390" width="40" height="40" as="geometry"/>
                </mxCell>
                <mxCell id="134" value="" style="whiteSpace=wrap;html=1;aspect=fixed;strokeColor=default;fillColor=#666666;direction=south;" parent="1" vertex="1">
                    <mxGeometry x="1005" y="390" width="40" height="40" as="geometry"/>
                </mxCell>
                <mxCell id="135" value="" style="whiteSpace=wrap;html=1;aspect=fixed;strokeColor=default;fillColor=none;direction=south;" parent="1" vertex="1">
                    <mxGeometry x="1045" y="390" width="40" height="40" as="geometry"/>
                </mxCell>
                <mxCell id="136" value="" style="whiteSpace=wrap;html=1;aspect=fixed;strokeColor=default;fillColor=#666666;direction=south;" parent="1" vertex="1">
                    <mxGeometry x="1085" y="390" width="40" height="40" as="geometry"/>
                </mxCell>
                <mxCell id="137" value="" style="whiteSpace=wrap;html=1;aspect=fixed;strokeColor=default;fillColor=none;direction=south;" parent="1" vertex="1">
                    <mxGeometry x="1125" y="390" width="40" height="40" as="geometry"/>
                </mxCell>
                <mxCell id="138" value="" style="whiteSpace=wrap;html=1;aspect=fixed;strokeColor=default;fillColor=#666666;direction=south;" parent="1" vertex="1">
                    <mxGeometry x="1165" y="390" width="40" height="40" as="geometry"/>
                </mxCell>
                <mxCell id="139" value="" style="whiteSpace=wrap;html=1;aspect=fixed;strokeColor=default;fillColor=none;direction=south;" parent="1" vertex="1">
                    <mxGeometry x="1205" y="390" width="40" height="40" as="geometry"/>
                </mxCell>
                <mxCell id="140" value="" style="whiteSpace=wrap;html=1;aspect=fixed;strokeColor=default;fillStyle=cross-hatch;fillColor=none;direction=south;" parent="1" vertex="1">
                    <mxGeometry x="925" y="430" width="40" height="40" as="geometry"/>
                </mxCell>
                <mxCell id="141" value="" style="whiteSpace=wrap;html=1;aspect=fixed;strokeColor=default;fillColor=#666666;direction=south;" parent="1" vertex="1">
                    <mxGeometry x="965" y="430" width="40" height="40" as="geometry"/>
                </mxCell>
                <mxCell id="142" value="" style="whiteSpace=wrap;html=1;aspect=fixed;strokeColor=default;fillStyle=cross-hatch;fillColor=none;direction=south;" parent="1" vertex="1">
                    <mxGeometry x="1005" y="430" width="40" height="40" as="geometry"/>
                </mxCell>
                <mxCell id="143" value="" style="whiteSpace=wrap;html=1;aspect=fixed;strokeColor=default;fillColor=#666666;direction=south;" parent="1" vertex="1">
                    <mxGeometry x="1045" y="430" width="40" height="40" as="geometry"/>
                </mxCell>
                <mxCell id="144" value="" style="whiteSpace=wrap;html=1;aspect=fixed;strokeColor=default;fillColor=none;direction=south;" parent="1" vertex="1">
                    <mxGeometry x="1085" y="430" width="40" height="40" as="geometry"/>
                </mxCell>
                <mxCell id="145" value="" style="whiteSpace=wrap;html=1;aspect=fixed;strokeColor=default;fillColor=#666666;direction=south;" parent="1" vertex="1">
                    <mxGeometry x="1125" y="430" width="40" height="40" as="geometry"/>
                </mxCell>
                <mxCell id="146" value="" style="whiteSpace=wrap;html=1;aspect=fixed;strokeColor=default;fillColor=none;direction=south;" parent="1" vertex="1">
                    <mxGeometry x="1165" y="430" width="40" height="40" as="geometry"/>
                </mxCell>
                <mxCell id="147" value="" style="whiteSpace=wrap;html=1;aspect=fixed;strokeColor=default;fillColor=#666666;direction=south;" parent="1" vertex="1">
                    <mxGeometry x="1205" y="430" width="40" height="40" as="geometry"/>
                </mxCell>
                <mxCell id="148" value="" style="whiteSpace=wrap;html=1;aspect=fixed;strokeColor=default;fillColor=#666666;direction=south;" parent="1" vertex="1">
                    <mxGeometry x="925" y="470" width="40" height="40" as="geometry"/>
                </mxCell>
                <mxCell id="149" value="" style="whiteSpace=wrap;html=1;aspect=fixed;strokeColor=default;fillStyle=cross-hatch;fillColor=none;direction=south;" parent="1" vertex="1">
                    <mxGeometry x="965" y="470" width="40" height="40" as="geometry"/>
                </mxCell>
                <mxCell id="150" value="" style="whiteSpace=wrap;html=1;aspect=fixed;strokeColor=default;fillColor=#666666;direction=south;" parent="1" vertex="1">
                    <mxGeometry x="1005" y="470" width="40" height="40" as="geometry"/>
                </mxCell>
                <mxCell id="151" value="" style="whiteSpace=wrap;html=1;aspect=fixed;strokeColor=default;fillColor=none;direction=south;" parent="1" vertex="1">
                    <mxGeometry x="1045" y="470" width="40" height="40" as="geometry"/>
                </mxCell>
                <mxCell id="152" value="" style="whiteSpace=wrap;html=1;aspect=fixed;strokeColor=default;fillColor=#666666;direction=south;" parent="1" vertex="1">
                    <mxGeometry x="1085" y="470" width="40" height="40" as="geometry"/>
                </mxCell>
                <mxCell id="153" value="" style="whiteSpace=wrap;html=1;aspect=fixed;strokeColor=default;fillColor=none;direction=south;" parent="1" vertex="1">
                    <mxGeometry x="1125" y="470" width="40" height="40" as="geometry"/>
                </mxCell>
                <mxCell id="154" value="" style="whiteSpace=wrap;html=1;aspect=fixed;strokeColor=default;fillColor=#666666;direction=south;" parent="1" vertex="1">
                    <mxGeometry x="1165" y="470" width="40" height="40" as="geometry"/>
                </mxCell>
                <mxCell id="155" value="" style="whiteSpace=wrap;html=1;aspect=fixed;strokeColor=default;fillColor=none;direction=south;" parent="1" vertex="1">
                    <mxGeometry x="1205" y="470" width="40" height="40" as="geometry"/>
                </mxCell>
                <mxCell id="156" value="a" style="text;align=center;fontStyle=0;verticalAlign=middle;spacingLeft=3;spacingRight=3;strokeColor=none;rotatable=0;points=[[0,0.5],[1,0.5]];portConstraint=eastwest;direction=south;" parent="1" vertex="1">
                    <mxGeometry x="930" y="155" width="30" height="40" as="geometry"/>
                </mxCell>
                <mxCell id="157" value="b" style="text;align=center;fontStyle=0;verticalAlign=middle;spacingLeft=3;spacingRight=3;strokeColor=none;rotatable=0;points=[[0,0.5],[1,0.5]];portConstraint=eastwest;direction=south;" parent="1" vertex="1">
                    <mxGeometry x="970" y="155" width="30" height="40" as="geometry"/>
                </mxCell>
                <mxCell id="158" value="c" style="text;align=center;fontStyle=0;verticalAlign=middle;spacingLeft=3;spacingRight=3;strokeColor=none;rotatable=0;points=[[0,0.5],[1,0.5]];portConstraint=eastwest;direction=south;" parent="1" vertex="1">
                    <mxGeometry x="1010" y="155" width="30" height="40" as="geometry"/>
                </mxCell>
                <mxCell id="159" value="d" style="text;align=center;fontStyle=0;verticalAlign=middle;spacingLeft=3;spacingRight=3;strokeColor=none;rotatable=0;points=[[0,0.5],[1,0.5]];portConstraint=eastwest;direction=south;" parent="1" vertex="1">
                    <mxGeometry x="1050" y="155" width="30" height="40" as="geometry"/>
                </mxCell>
                <mxCell id="160" value="e" style="text;align=center;fontStyle=0;verticalAlign=middle;spacingLeft=3;spacingRight=3;strokeColor=none;rotatable=0;points=[[0,0.5],[1,0.5]];portConstraint=eastwest;direction=south;" parent="1" vertex="1">
                    <mxGeometry x="1090" y="155" width="30" height="40" as="geometry"/>
                </mxCell>
                <mxCell id="161" value="f" style="text;align=center;fontStyle=0;verticalAlign=middle;spacingLeft=3;spacingRight=3;strokeColor=none;rotatable=0;points=[[0,0.5],[1,0.5]];portConstraint=eastwest;direction=south;" parent="1" vertex="1">
                    <mxGeometry x="1130" y="155" width="30" height="40" as="geometry"/>
                </mxCell>
                <mxCell id="162" value="g" style="text;align=center;fontStyle=0;verticalAlign=middle;spacingLeft=3;spacingRight=3;strokeColor=none;rotatable=0;points=[[0,0.5],[1,0.5]];portConstraint=eastwest;direction=south;" parent="1" vertex="1">
                    <mxGeometry x="1170" y="155" width="30" height="40" as="geometry"/>
                </mxCell>
                <mxCell id="163" value="h" style="text;align=center;fontStyle=0;verticalAlign=middle;spacingLeft=3;spacingRight=3;strokeColor=none;rotatable=0;points=[[0,0.5],[1,0.5]];portConstraint=eastwest;direction=south;" parent="1" vertex="1">
                    <mxGeometry x="1210" y="155" width="30" height="40" as="geometry"/>
                </mxCell>
                <mxCell id="164" value="8" style="text;align=center;fontStyle=0;verticalAlign=middle;spacingLeft=3;spacingRight=3;strokeColor=none;rotatable=0;points=[[0,0.5],[1,0.5]];portConstraint=eastwest;direction=south;" parent="1" vertex="1">
                    <mxGeometry x="890" y="195" width="40" height="30" as="geometry"/>
                </mxCell>
                <mxCell id="165" value="7" style="text;align=center;fontStyle=0;verticalAlign=middle;spacingLeft=3;spacingRight=3;strokeColor=none;rotatable=0;points=[[0,0.5],[1,0.5]];portConstraint=eastwest;direction=south;" parent="1" vertex="1">
                    <mxGeometry x="890" y="235" width="40" height="30" as="geometry"/>
                </mxCell>
                <mxCell id="166" value="6" style="text;align=center;fontStyle=0;verticalAlign=middle;spacingLeft=3;spacingRight=3;strokeColor=none;rotatable=0;points=[[0,0.5],[1,0.5]];portConstraint=eastwest;direction=south;" parent="1" vertex="1">
                    <mxGeometry x="890" y="275" width="40" height="30" as="geometry"/>
                </mxCell>
                <mxCell id="167" value="5" style="text;align=center;fontStyle=0;verticalAlign=middle;spacingLeft=3;spacingRight=3;strokeColor=none;rotatable=0;points=[[0,0.5],[1,0.5]];portConstraint=eastwest;direction=south;" parent="1" vertex="1">
                    <mxGeometry x="890" y="315" width="40" height="30" as="geometry"/>
                </mxCell>
                <mxCell id="168" value="4" style="text;align=center;fontStyle=0;verticalAlign=middle;spacingLeft=3;spacingRight=3;strokeColor=none;rotatable=0;points=[[0,0.5],[1,0.5]];portConstraint=eastwest;direction=south;" parent="1" vertex="1">
                    <mxGeometry x="890" y="355" width="40" height="30" as="geometry"/>
                </mxCell>
                <mxCell id="169" value="3" style="text;align=center;fontStyle=0;verticalAlign=middle;spacingLeft=3;spacingRight=3;strokeColor=none;rotatable=0;points=[[0,0.5],[1,0.5]];portConstraint=eastwest;direction=south;" parent="1" vertex="1">
                    <mxGeometry x="890" y="395" width="40" height="30" as="geometry"/>
                </mxCell>
                <mxCell id="170" value="2" style="text;align=center;fontStyle=0;verticalAlign=middle;spacingLeft=3;spacingRight=3;strokeColor=none;rotatable=0;points=[[0,0.5],[1,0.5]];portConstraint=eastwest;direction=south;" parent="1" vertex="1">
                    <mxGeometry x="890" y="435" width="40" height="30" as="geometry"/>
                </mxCell>
                <mxCell id="171" value="1" style="text;align=center;fontStyle=0;verticalAlign=middle;spacingLeft=3;spacingRight=3;strokeColor=none;rotatable=0;points=[[0,0.5],[1,0.5]];portConstraint=eastwest;direction=south;" parent="1" vertex="1">
                    <mxGeometry x="890" y="475" width="40" height="30" as="geometry"/>
                </mxCell>
                <mxCell id="172" value="Alphanummerische&#10;Koordinaten" style="text;align=right;fontStyle=0;verticalAlign=middle;spacingLeft=3;spacingRight=3;strokeColor=none;rotatable=0;points=[[0,0.5],[1,0.5]];portConstraint=eastwest;" parent="1" vertex="1">
                    <mxGeometry x="760" y="190" width="125" height="30" as="geometry"/>
                </mxCell>
                <mxCell id="173" value="Klassendiagramm Schach" style="text;align=left;fontStyle=1;verticalAlign=middle;spacingLeft=3;spacingRight=3;strokeColor=none;rotatable=0;points=[[0,0.5],[1,0.5]];portConstraint=eastwest;fontSize=24;" parent="1" vertex="1">
                    <mxGeometry x="60" y="30" width="320" height="40" as="geometry"/>
                </mxCell>
                <mxCell id="175" value="Marin Balabanov, 28. September 2023" style="text;html=1;strokeColor=none;fillColor=none;align=left;verticalAlign=middle;whiteSpace=wrap;rounded=0;fillStyle=cross-hatch;fontSize=15;" parent="1" vertex="1">
                    <mxGeometry x="63" y="70" width="280" height="30" as="geometry"/>
                </mxCell>
                <mxCell id="186" value="Methode schlagen() nimmt die Eingabe&#10;eines Spielzugs z.B. Springer  g1-f3,&#10;uebersetzt die alphanummerischen&#10;Koordinaten und berechnet, ob der Zug&#10;durchgefuehrt werden kann, dann wird&#10;ueberprueft, ob eine gegnerische Figur auf&#10;dem Zielfeld liegt, um sie dann zu schlagen." style="text;align=center;fontStyle=0;verticalAlign=middle;spacingLeft=3;spacingRight=3;strokeColor=default;rotatable=0;points=[[0,0.5],[1,0.5]];portConstraint=eastwest;" parent="1" vertex="1">
                    <mxGeometry x="357" y="1470" width="250" height="120" as="geometry"/>
                </mxCell>
                <mxCell id="187" value="ziehen ( von: String, zu String )" style="text;align=left;fontStyle=1;verticalAlign=middle;spacingLeft=3;spacingRight=3;strokeColor=none;rotatable=0;points=[[0,0.5],[1,0.5]];portConstraint=eastwest;" parent="1" vertex="1">
                    <mxGeometry x="67.5" y="1440" width="180" height="30" as="geometry"/>
                </mxCell>
                <mxCell id="188" value="schlagen ( von: String, zu String )" style="text;align=left;fontStyle=1;verticalAlign=middle;spacingLeft=3;spacingRight=3;strokeColor=none;rotatable=0;points=[[0,0.5],[1,0.5]];portConstraint=eastwest;" parent="1" vertex="1">
                    <mxGeometry x="357" y="1440" width="213" height="30" as="geometry"/>
                </mxCell>
                <mxCell id="189" value="Methode rochade() ist der einzige Zug, der&#10;zwei Figuren betrifft (Koenig und Turm). Die&#10;Figuren duerfen nicht bewegt worden sein.&#10;Somit darf eine Rochade nur einmal pro&#10;Spiel vollzogen werden. Felder zwischen&#10;den Figuren muessen frei sein." style="text;align=center;fontStyle=0;verticalAlign=middle;spacingLeft=3;spacingRight=3;strokeColor=default;rotatable=0;points=[[0,0.5],[1,0.5]];portConstraint=eastwest;" parent="1" vertex="1">
                    <mxGeometry x="650" y="1470" width="253" height="120" as="geometry"/>
                </mxCell>
                <mxCell id="190" value="rochade( turmVon: String, turmZu String,&#10;koenigVon: String, koenigZu String  )" style="text;align=left;fontStyle=1;verticalAlign=middle;spacingLeft=3;spacingRight=3;strokeColor=none;rotatable=0;points=[[0,0.5],[1,0.5]];portConstraint=eastwest;" parent="1" vertex="1">
                    <mxGeometry x="650" y="1430" width="243" height="40" as="geometry"/>
                </mxCell>
                <mxCell id="192" value="Die Schachnotation verwendet&#10;Buchstaben fuer die X-Koordinaten&#10;und Ziffern fuer die Y-Koordinaten.&#10;Die Eingabe (z.B. e2 auf e3) muss&#10;in nummerische Koordinaten&#10;umgewandelt werden, um die&#10;Gueltigkeit des Zugs zu&#10;berechnen." style="text;align=right;fontStyle=0;verticalAlign=middle;spacingLeft=3;spacingRight=3;strokeColor=none;rotatable=0;points=[[0,0.5],[1,0.5]];portConstraint=eastwest;" parent="1" vertex="1">
                    <mxGeometry x="680" y="250" width="205" height="130" as="geometry"/>
                </mxCell>
                <mxCell id="193" value="3. Erklaerung der Methoden" style="text;align=left;fontStyle=1;verticalAlign=middle;spacingLeft=3;spacingRight=3;strokeColor=none;rotatable=0;points=[[0,0.5],[1,0.5]];portConstraint=eastwest;fontSize=14;" parent="1" vertex="1">
                    <mxGeometry x="67.5" y="1400" width="202.5" height="30" as="geometry"/>
                </mxCell>
                <mxCell id="194" value="2. Schachfiguren" style="text;align=left;fontStyle=1;verticalAlign=middle;spacingLeft=3;spacingRight=3;strokeColor=none;rotatable=0;points=[[0,0.5],[1,0.5]];portConstraint=eastwest;fontSize=14;" parent="1" vertex="1">
                    <mxGeometry x="60" y="500" width="202.5" height="30" as="geometry"/>
                </mxCell>
                <mxCell id="195" value="1. Schachbrett und Spielpositionen" style="text;align=left;fontStyle=1;verticalAlign=middle;spacingLeft=3;spacingRight=3;strokeColor=none;rotatable=0;points=[[0,0.5],[1,0.5]];portConstraint=eastwest;fontSize=14;" parent="1" vertex="1">
                    <mxGeometry x="60" y="150" width="260" height="30" as="geometry"/>
                </mxCell>
            </root>
        </mxGraphModel>
    </diagram>
</mxfile>